<svg width="266" height="60" viewBox="0 0 266 60" fill="none" xmlns="http://www.w3.org/2000/svg">
<g clip-path="url(#clip0)">
<path d="M187.411 60H138.372C137.17 60 136.088 59.2678 135.635 58.1414C135.173 57.015 135.432 55.7197 136.282 54.8655L160.765 30.0094L136.282 5.13454C135.432 4.27096 135.182 2.97559 135.635 1.85857C136.088 0.741552 137.179 0 138.381 0H211.94C227.232 0 239.853 11.8554 241.341 26.9869H263.041C264.678 26.9869 266.009 28.3385 266.009 30C266.009 31.6615 264.678 33.0131 263.041 33.0131H214.002C208.306 33.0131 203.674 37.7159 203.674 43.4981C203.674 52.5939 196.379 60 187.411 60ZM145.537 53.9737H187.42C193.116 53.9737 197.748 49.271 197.748 43.4887C197.748 39.5088 199.144 35.8573 201.455 33.0038H166.192L145.537 53.9737ZM166.192 26.9869H235.369C233.908 15.1783 223.95 6.0169 211.94 6.0169H145.537L166.192 26.9869Z" fill="#00BCDE"/>
<path d="M5.72311 20.5756V28.8171C5.72311 30.197 6.43504 30.9198 7.84963 30.9198H21.635C23.5951 30.9198 24.0852 31.4172 24.0852 33.4072V33.9047C24.0852 35.8947 23.5951 36.3922 21.635 36.3922H6.21314C1.84915 36.4016 0 34.5149 0 30.0937V6.73953C0 2.30899 1.84915 0.431641 6.21314 0.431641H21.635C23.5951 0.431641 24.0852 0.929137 24.0852 2.91912V3.41662C24.0852 5.40661 23.5951 5.90411 21.635 5.90411H7.84963C6.43504 5.90411 5.72311 6.62688 5.72311 8.00673V15.0937H19.4623C21.4224 15.0937 21.9124 15.5912 21.9124 17.5812V18.0787C21.9124 20.0687 21.4224 20.5662 19.4623 20.5662H5.72311V20.5756Z" fill="black"/>
<path d="M69.5467 33.8578C69.7131 35.9041 69.2231 36.4016 67.1982 36.4016H66.3846C64.369 36.4016 63.879 35.9041 63.7126 33.8578L61.9744 8.28837C61.808 5.91353 61.3734 5.30339 60.0698 5.30339C58.9233 5.30339 58.4333 6.02617 58.1651 8.28837L55.225 30.5349C54.624 34.9655 53.2649 36.4016 49.1783 36.4016C45.4707 36.4016 43.7233 34.9091 43.1316 30.5349L40.1359 8.28837C39.8678 6.01678 39.3223 5.30339 38.1758 5.30339C37.0294 5.30339 36.4839 6.08249 36.3267 8.28837L34.6347 33.8578C34.5793 35.8478 33.9783 36.4016 31.9627 36.4016H31.1491C29.1335 36.4016 28.6435 35.9041 28.8007 33.8578L30.6498 8.23205C31.0844 2.47798 33.3218 0.09375 38.1204 0.09375C42.6415 0.09375 44.7126 2.42166 45.4245 8.23205L47.9856 29.5963C48.2075 31.314 48.3647 31.5862 49.1875 31.5862C49.8995 31.5862 50.1121 31.3046 50.334 29.5963L52.8951 8.23205C53.607 2.47798 55.7797 0.09375 60.1992 0.09375C65.0532 0.09375 67.226 2.42166 67.6698 8.23205L69.5467 33.8578Z" fill="black"/>
<path d="M75.436 2.97545C75.436 0.929137 75.9261 0.431641 77.9416 0.431641H78.6536C80.6691 0.431641 81.1592 0.929137 81.1592 2.97545V28.8171C81.1592 30.197 81.8711 30.9198 83.2857 30.9198H94.8983C96.8584 30.9198 97.3485 31.4172 97.3485 33.4072V33.9047C97.3485 35.8947 96.8584 36.3922 94.8983 36.3922H81.6492C77.2852 36.3922 75.436 34.5149 75.436 30.0843V2.97545Z" fill="black"/>
<path d="M108.351 20.5756V28.8171C108.351 30.197 109.063 30.9198 110.478 30.9198H124.263C126.223 30.9198 126.713 31.4172 126.713 33.4072V33.9047C126.713 35.8947 126.223 36.3922 124.263 36.3922H108.841C104.477 36.3922 102.628 34.5149 102.628 30.0843V6.73953C102.628 2.30899 104.477 0.431641 108.841 0.431641H124.263C126.223 0.431641 126.713 0.929137 126.713 2.91912V3.41662C126.713 5.40661 126.223 5.90411 124.263 5.90411H110.478C109.063 5.90411 108.351 6.62688 108.351 8.00673V15.0937H122.081C124.041 15.0937 124.531 15.5912 124.531 17.5812V18.0787C124.531 20.0687 124.041 20.5662 122.081 20.5662H108.351V20.5756Z" fill="black"/>
<path d="M0 44.7091C0 42.0245 0.943066 40.9731 3.29148 40.9731C5.27007 40.9731 6.04671 41.7053 6.68467 43.9675L10.1981 56.6114C10.3922 57.2591 10.5586 57.3999 10.9192 57.3999C11.2798 57.3999 11.474 57.0902 11.474 56.4706V42.5595C11.474 41.5176 11.7236 41.2547 12.7591 41.2547H13.0365C14.0628 41.2547 14.3124 41.5082 14.3124 42.5595V56.1984C14.3124 58.9112 13.3971 59.9343 11.1319 59.9343C9.12555 59.9343 8.26569 59.174 7.59075 56.7898L4.15134 44.4275C3.95718 43.6671 3.81849 43.4982 3.40243 43.4982C3.04185 43.4982 2.84769 43.8361 2.84769 44.4838V58.348C2.84769 59.3899 2.59805 59.6527 1.56253 59.6527H1.28516C0.249635 59.6434 0 59.3899 0 58.3386V44.7091Z" fill="black"/>
<path d="M17.5854 53.8422V51.4111C17.5854 47.3372 19.7305 45.3003 23.9927 45.3003C28.366 45.3003 30.3446 47.3091 30.3446 51.4111V53.8422C30.3446 57.8034 28.2273 59.953 23.9927 59.953C19.564 59.953 17.5854 57.9442 17.5854 53.8422ZM27.4784 51.4111C27.4784 48.9517 26.6463 48.0131 23.9927 48.0131C21.3392 48.0131 20.4516 48.9423 20.4516 51.4111V53.8422C20.4516 56.2452 21.3115 57.2121 23.9927 57.2121C26.637 57.2121 27.4784 56.3109 27.4784 53.8422V51.4111Z" fill="black"/>
<path d="M31.9624 47.0557C31.9624 46.2672 32.1566 46.0419 32.9055 45.8918L34.3848 45.6102L34.7176 42.9537C34.8286 42.1371 35.0505 41.9399 35.8641 41.9399H36.2247C37.0291 41.9399 37.2232 42.1371 37.2232 42.9537V45.6102H41.1249C42.0403 45.6102 42.2899 45.8073 42.2899 46.8023V47.1402C42.2899 48.1258 42.0403 48.3323 41.1249 48.3323H37.2232V54.7528C37.2232 56.3955 37.9444 57.2122 39.396 57.2122C40.2281 57.2122 40.9862 57.1277 41.6519 56.9587C42.5673 56.7616 42.7892 56.9587 42.7892 57.9443V58.2822C42.7892 59.2115 42.5673 59.5025 41.6519 59.6996C40.8476 59.8404 40.0894 59.9249 39.396 59.9249C36.049 59.9249 34.3848 58.1978 34.3848 54.7153V48.3229H32.9332C32.1566 48.3229 31.9624 48.1258 31.9624 47.3373V47.0557Z" fill="black"/>
<path d="M56.621 52.4061C56.51 53.4574 56.2326 53.7108 55.1971 53.7108H47.4492V54.3303C47.4492 56.3954 48.6234 57.2121 51.4341 57.2121C52.6083 57.2121 53.801 57.0713 55.0584 56.7615C55.946 56.5362 56.1957 56.7615 56.1957 57.7565V58.1226C56.1957 59.0519 56.0292 59.249 55.0584 59.5118C53.9674 59.8216 52.7747 59.9624 51.4341 59.9624C46.728 59.9624 44.583 58.1226 44.583 53.9079V51.4392C44.583 47.3372 46.6448 45.3003 50.7684 45.3003C54.6424 45.3003 56.6764 47.3091 56.6764 51.1576C56.6764 51.4111 56.6487 51.8335 56.621 52.4061ZM47.4492 51.3266H53.9674V50.6226C53.9674 48.7546 52.8857 47.8253 50.6852 47.8253C48.5402 47.8253 47.4492 48.7546 47.4492 50.6226V51.3266Z" fill="black"/>
<path d="M59.0156 57.7192C59.0156 56.7242 59.2375 56.4989 60.1251 56.7242C61.4657 57.0902 62.8341 57.2592 64.1932 57.2592C66.0886 57.2592 66.782 56.9494 66.782 56.0389C66.782 55.3349 66.4215 54.997 64.9976 54.3399L61.9835 52.9789C60.0049 52.1059 59.2283 51.1391 59.2283 49.1303C59.2283 46.502 60.874 45.2817 64.5538 45.2817C65.7003 45.2817 66.782 45.4225 67.7898 45.7041C68.7884 46.0139 68.9548 46.211 68.9548 47.1215V47.4595C68.9548 48.4545 68.7052 48.6797 67.8176 48.4169C66.782 48.1071 65.7003 47.9663 64.4983 47.9663C62.7139 47.9663 62.0482 48.3043 62.0482 49.1303C62.0482 49.8061 62.3533 50.1159 63.3611 50.5759L66.5879 51.9932C68.7052 52.8944 69.5743 53.9457 69.5743 55.9826C69.5743 58.6954 67.8453 59.9438 63.9436 59.9438C62.603 59.9438 61.3271 59.7749 60.1251 59.4651C59.2098 59.2116 59.0156 58.9864 59.0156 58.0759V57.7192Z" fill="black"/>
</g>
<defs>
<clipPath id="clip0">
<rect width="266" height="60" fill="white"/>
</clipPath>
</defs>
</svg>
