<svg width="353" height="54" viewBox="0 0 353 54" fill="none" xmlns="http://www.w3.org/2000/svg">
<path d="M21.8 22.84H6.68V31.78C6.68 33.3 7.46 34.06 9.02 34.06H24.2C25.28 34.06 26 34.24 26.36 34.6C26.72 34.96 26.9 35.68 26.9 36.76V37.3C26.9 38.38 26.72 39.1 26.36 39.46C26 39.82 25.28 40 24.2 40H7.22C4.82 40 3.08 39.46 2 38.38C0.92 37.3 0.38 35.56 0.38 33.16V7.84C0.38 5.44 0.92 3.7 2 2.62C3.08 1.54 4.82 0.999998 7.22 0.999998H24.2C25.28 0.999998 26 1.18 26.36 1.54C26.72 1.9 26.9 2.62 26.9 3.7V4.24C26.9 5.32 26.72 6.04 26.36 6.4C26 6.76 25.28 6.94 24.2 6.94H9.02C7.46 6.94 6.68 7.7 6.68 9.22V16.9H21.8C22.88 16.9 23.6 17.08 23.96 17.44C24.32 17.8 24.5 18.52 24.5 19.6V20.14C24.5 21.22 24.32 21.94 23.96 22.3C23.6 22.66 22.88 22.84 21.8 22.84ZM74.8114 9.46L76.9114 37.24C76.9914 38.36 76.8514 39.1 76.4914 39.46C76.1714 39.82 75.4514 40 74.3314 40H73.4314C72.3114 40 71.5514 39.82 71.1514 39.46C70.7914 39.1 70.5714 38.36 70.4914 37.24L68.5714 9.52C68.4914 8.24 68.2914 7.38 67.9714 6.94C67.6914 6.5 67.1914 6.28 66.4714 6.28C65.8314 6.28 65.3514 6.52 65.0314 7C64.7514 7.44 64.5314 8.28 64.3714 9.52L61.1314 33.64C60.8114 36.08 60.1714 37.76 59.2114 38.68C58.2914 39.56 56.7114 40 54.4714 40C52.3914 40 50.8314 39.52 49.7914 38.56C48.7914 37.6 48.1314 35.96 47.8114 33.64L44.5114 9.52C44.3514 8.32 44.1114 7.48 43.7914 7C43.4714 6.52 42.9914 6.28 42.3514 6.28C41.1514 6.28 40.4714 7.36 40.3114 9.52L38.4514 37.24C38.4114 38.32 38.1914 39.06 37.7914 39.46C37.3914 39.82 36.6314 40 35.5114 40H34.6114C33.4914 40 32.7514 39.82 32.3914 39.46C32.0714 39.1 31.9514 38.36 32.0314 37.24L34.0714 9.46C34.3114 6.34 35.0714 4.1 36.3514 2.74C37.6714 1.34 39.6514 0.639999 42.2914 0.639999C44.7714 0.639999 46.6314 1.32 47.8714 2.68C49.1114 4.04 49.9314 6.3 50.3314 9.46L53.1514 32.62C53.2714 33.54 53.4114 34.14 53.5714 34.42C53.7314 34.66 54.0314 34.78 54.4714 34.78C54.8714 34.78 55.1514 34.66 55.3114 34.42C55.4714 34.14 55.6114 33.54 55.7314 32.62L58.5514 9.46C58.9514 6.34 59.7714 4.1 61.0114 2.74C62.2914 1.34 64.1514 0.639999 66.5914 0.639999C69.2714 0.639999 71.2514 1.32 72.5314 2.68C73.8114 4.04 74.5714 6.3 74.8114 9.46ZM83.4073 33.16V3.76C83.4073 2.64 83.5873 1.9 83.9473 1.54C84.3073 1.18 85.0473 0.999998 86.1673 0.999998H86.9473C88.0673 0.999998 88.8073 1.18 89.1673 1.54C89.5273 1.9 89.7073 2.64 89.7073 3.76V31.78C89.7073 33.3 90.4873 34.06 92.0473 34.06H104.827C105.907 34.06 106.627 34.24 106.987 34.6C107.347 34.96 107.527 35.68 107.527 36.76V37.3C107.527 38.38 107.347 39.1 106.987 39.46C106.627 39.82 105.907 40 104.827 40H90.2473C87.8473 40 86.1073 39.46 85.0273 38.38C83.9473 37.3 83.4073 35.56 83.4073 33.16ZM134.769 22.84H119.649V31.78C119.649 33.3 120.429 34.06 121.989 34.06H137.169C138.249 34.06 138.969 34.24 139.329 34.6C139.689 34.96 139.869 35.68 139.869 36.76V37.3C139.869 38.38 139.689 39.1 139.329 39.46C138.969 39.82 138.249 40 137.169 40H120.189C117.789 40 116.049 39.46 114.969 38.38C113.889 37.3 113.349 35.56 113.349 33.16V7.84C113.349 5.44 113.889 3.7 114.969 2.62C116.049 1.54 117.789 0.999998 120.189 0.999998H137.169C138.249 0.999998 138.969 1.18 139.329 1.54C139.689 1.9 139.869 2.62 139.869 3.7V4.24C139.869 5.32 139.689 6.04 139.329 6.4C138.969 6.76 138.249 6.94 137.169 6.94H121.989C120.429 6.94 119.649 7.7 119.649 9.22V16.9H134.769C135.849 16.9 136.569 17.08 136.929 17.44C137.289 17.8 137.469 18.52 137.469 19.6V20.14C137.469 21.22 137.289 21.94 136.929 22.3C136.569 22.66 135.849 22.84 134.769 22.84ZM160.006 36.28V35.32C160.006 34.24 160.186 33.56 160.546 33.28C160.906 32.96 161.546 32.96 162.466 33.28C165.506 34.24 168.746 34.72 172.186 34.72C174.946 34.72 176.926 34.4 178.126 33.76C179.326 33.12 179.926 32.04 179.926 30.52C179.926 29.32 179.566 28.36 178.846 27.64C178.166 26.92 176.806 25.94 174.766 24.7L166.486 19.72C162.486 17.32 160.486 14.06 160.486 9.94C160.486 6.74 161.566 4.36 163.726 2.8C165.886 1.24 169.226 0.459998 173.746 0.459998C176.786 0.459998 179.566 0.859997 182.086 1.66C183.166 1.98 183.866 2.32 184.186 2.68C184.506 3.04 184.666 3.7 184.666 4.66V5.68C184.666 6.76 184.506 7.44 184.186 7.72C183.906 7.96 183.266 7.94 182.266 7.66C179.746 6.82 176.906 6.4 173.746 6.4C171.346 6.4 169.606 6.68 168.526 7.24C167.486 7.8 166.966 8.76 166.966 10.12C166.966 11.08 167.226 11.88 167.746 12.52C168.266 13.16 169.266 13.92 170.746 14.8L179.266 20.02C181.866 21.58 183.706 23.14 184.786 24.7C185.866 26.22 186.406 28.16 186.406 30.52C186.406 37.28 181.626 40.66 172.066 40.66C168.506 40.66 165.286 40.2 162.406 39.28C161.406 38.96 160.746 38.62 160.426 38.26C160.146 37.9 160.006 37.24 160.006 36.28ZM198.189 12.94V28.96C198.189 31.12 198.689 32.64 199.689 33.52C200.689 34.4 202.489 34.84 205.089 34.84C207.649 34.84 209.429 34.4 210.429 33.52C211.429 32.64 211.929 31.12 211.929 28.96V12.94C211.929 11.86 212.109 11.14 212.469 10.78C212.829 10.42 213.549 10.24 214.629 10.24H215.409C216.489 10.24 217.209 10.42 217.569 10.78C217.929 11.14 218.109 11.86 218.109 12.94V28.96C218.109 32.92 217.049 35.86 214.929 37.78C212.809 39.7 209.529 40.66 205.089 40.66C196.369 40.66 192.009 36.76 192.009 28.96V12.94C192.009 11.86 192.189 11.14 192.549 10.78C192.909 10.42 193.629 10.24 194.709 10.24H195.489C196.569 10.24 197.289 10.42 197.649 10.78C198.009 11.14 198.189 11.86 198.189 12.94ZM230.596 20.62V37.3C230.596 38.38 230.416 39.1 230.056 39.46C229.696 39.82 228.976 40 227.896 40H227.116C226.036 40 225.316 39.82 224.956 39.46C224.596 39.1 224.416 38.38 224.416 37.3V20.2C224.416 13.12 228.196 9.58 235.756 9.58C236.436 9.58 236.836 9.6 236.956 9.64C237.956 9.76 238.616 10 238.936 10.36C239.296 10.72 239.476 11.42 239.476 12.46V13.3C239.476 14.3 239.316 14.94 238.996 15.22C238.676 15.5 237.996 15.56 236.956 15.4C236.836 15.36 236.436 15.34 235.756 15.34C233.836 15.34 232.496 15.74 231.736 16.54C230.976 17.34 230.596 18.7 230.596 20.62ZM269.249 20.2V20.74C269.249 27.94 264.949 31.54 256.349 31.54C253.469 31.54 251.609 31.66 250.769 31.9C249.929 32.14 249.509 32.66 249.509 33.46C249.509 34.14 249.949 34.6 250.829 34.84C251.749 35.08 253.589 35.2 256.349 35.2C261.509 35.2 265.089 35.84 267.089 37.12C269.049 38.36 270.029 40.58 270.029 43.78C270.029 47.18 269.029 49.58 267.029 50.98C265.029 52.38 261.469 53.08 256.349 53.08C251.069 53.08 247.429 52.42 245.429 51.1C243.469 49.78 242.489 47.72 242.489 44.92C242.489 42.16 243.549 40.14 245.669 38.86C244.149 37.94 243.389 36.54 243.389 34.66C243.389 31.98 244.969 30.26 248.129 29.5C244.889 27.94 243.269 25.02 243.269 20.74V20.2C243.269 16.84 244.409 14.24 246.689 12.4C249.009 10.52 252.229 9.58 256.349 9.58C258.509 9.58 260.409 9.9 262.049 10.54L265.469 7.6C266.149 7 266.709 6.7 267.149 6.7C267.629 6.7 268.189 7.02 268.829 7.66L269.369 8.2C270.009 8.84 270.329 9.38 270.329 9.82C270.369 10.26 270.069 10.8 269.429 11.44L266.969 14.08C268.489 15.6 269.249 17.64 269.249 20.2ZM263.069 20.74V20.2C263.069 18.4 262.529 17.08 261.449 16.24C260.409 15.36 258.709 14.92 256.349 14.92C251.749 14.92 249.449 16.68 249.449 20.2V20.74C249.449 22.66 249.969 24.06 251.009 24.94C252.089 25.78 253.869 26.2 256.349 26.2C258.789 26.2 260.509 25.78 261.509 24.94C262.549 24.06 263.069 22.66 263.069 20.74ZM256.349 40.48C253.709 40.48 251.889 40.4 250.889 40.24C249.409 40.88 248.669 42.16 248.669 44.08C248.669 45.6 249.189 46.6 250.229 47.08C251.269 47.6 253.309 47.86 256.349 47.86C259.269 47.86 261.249 47.6 262.289 47.08C263.329 46.56 263.849 45.52 263.849 43.96C263.849 42.44 263.349 41.48 262.349 41.08C261.389 40.68 259.389 40.48 256.349 40.48ZM300.188 22C300.188 22.16 300.148 23.04 300.068 24.64C299.948 25.76 299.688 26.5 299.288 26.86C298.888 27.22 298.128 27.4 297.008 27.4H280.328V28.72C280.328 30.92 280.988 32.5 282.308 33.46C283.668 34.38 285.868 34.84 288.908 34.84C291.508 34.84 294.108 34.52 296.708 33.88C297.668 33.64 298.308 33.68 298.628 34C298.988 34.28 299.168 34.94 299.168 35.98V36.76C299.168 37.76 299.008 38.44 298.688 38.8C298.408 39.12 297.748 39.42 296.708 39.7C294.428 40.34 291.828 40.66 288.908 40.66C283.828 40.66 280.088 39.64 277.688 37.6C275.328 35.52 274.148 32.26 274.148 27.82V22.6C274.148 13.92 278.588 9.58 287.468 9.58C291.628 9.58 294.788 10.64 296.948 12.76C299.108 14.84 300.188 17.92 300.188 22ZM280.328 20.86V22.36H294.368V20.86C294.368 16.9 292.008 14.92 287.288 14.92C282.648 14.92 280.328 16.9 280.328 20.86ZM312.275 20.62V37.3C312.275 38.38 312.095 39.1 311.735 39.46C311.375 39.82 310.655 40 309.575 40H308.795C307.715 40 306.995 39.82 306.635 39.46C306.275 39.1 306.095 38.38 306.095 37.3V20.2C306.095 13.12 309.875 9.58 317.435 9.58C318.115 9.58 318.515 9.6 318.635 9.64C319.635 9.76 320.295 10 320.615 10.36C320.975 10.72 321.155 11.42 321.155 12.46V13.3C321.155 14.3 320.995 14.94 320.675 15.22C320.355 15.5 319.675 15.56 318.635 15.4C318.515 15.36 318.115 15.34 317.435 15.34C315.515 15.34 314.175 15.74 313.415 16.54C312.655 17.34 312.275 18.7 312.275 20.62ZM331.129 12.94L335.869 32.26C336.149 33.42 336.509 34.2 336.949 34.6C337.389 35 338.109 35.2 339.109 35.2C339.869 35.2 340.469 34.98 340.909 34.54C341.349 34.1 341.689 33.34 341.929 32.26L346.429 12.94C346.669 11.86 347.009 11.14 347.449 10.78C347.889 10.42 348.669 10.24 349.789 10.24H350.569C351.689 10.24 352.389 10.42 352.669 10.78C352.949 11.14 352.949 11.86 352.669 12.94L346.189 40C345.189 44.2 343.649 47.36 341.569 49.48C339.529 51.6 336.789 52.84 333.349 53.2C332.589 53.28 331.989 53.16 331.549 52.84C331.149 52.52 330.849 51.9 330.649 50.98L330.469 50.2C330.269 49.4 330.289 48.82 330.529 48.46C330.769 48.14 331.309 47.92 332.149 47.8C334.149 47.52 335.769 46.76 337.009 45.52C338.249 44.28 339.209 42.46 339.889 40.06C339.369 40.34 338.449 40.48 337.129 40.48C335.049 40.48 333.489 39.94 332.449 38.86C331.449 37.74 330.589 35.72 329.869 32.8L324.829 12.94C324.549 11.86 324.549 11.14 324.829 10.78C325.109 10.42 325.809 10.24 326.929 10.24H327.709C328.829 10.24 329.609 10.42 330.049 10.78C330.489 11.14 330.849 11.86 331.129 12.94Z" fill="white"/>
</svg>
