<svg width="585" height="118" viewBox="0 0 585 118" fill="none" xmlns="http://www.w3.org/2000/svg">
<path d="M1 153.299C118.374 162.012 216.943 86.41 250.685 96.1439C269.644 101.613 228.56 117.88 228.94 84.9088C229.474 38.5606 344.914 75.7416 344.914 75.7416C345.307 75.6331 345.66 75.4111 345.929 75.1033C346.209 74.6441 346.303 74.0949 346.191 73.5685C346.048 72.3924 345.953 71.2571 345.793 70.0786C345.527 69.0852 345.658 68.0271 346.158 67.1288C346.684 66.6149 347.324 66.2329 348.026 66.0139C348.728 65.795 349.471 65.7454 350.196 65.869C352.333 66.0165 354.456 66.3362 356.542 66.8251C360.696 67.8047 364.713 69.2925 368.503 71.2547C372.307 73.1489 375.822 75.5765 378.942 78.4642C381.234 80.6515 383.496 83.3312 387.061 83.1137C387.593 83.0442 388.107 82.8694 388.572 82.5996L404.921 72.885L421.874 62.8164L462.431 38.7232C465.002 37.1981 468.586 36.3327 467.889 32.9359C467.085 29.7749 465.809 26.753 464.107 23.9717C461.217 18.8458 457.219 14.4307 452.407 11.049C444.463 5.46973 433.226 -1.28084 424.909 3.78928C397.545 20.4722 371.533 36.6627 344.295 53.3001C344.097 53.4183 343.946 53.6005 343.865 53.8166C343.785 54.0328 343.78 54.2699 343.853 54.4889C343.925 54.7079 344.07 54.8957 344.263 55.0212C344.457 55.1466 344.687 55.2022 344.916 55.1789C354.791 54.3447 364.71 56.1531 373.658 60.4188C373.658 60.4188 390.745 73.0068 393.073 75.9279C394.744 78.0171 396.748 83.4173 399.042 84.5503C402.123 86.0707 408.29 82.2889 410.981 81.0244C427.722 73.1359 448.453 77.4387 464.544 68.324C489.117 54.4021 513.46 39.7199 537.311 24.5574C537.508 24.4275 537.653 24.2337 537.723 24.0086C537.793 23.7836 537.783 23.5412 537.695 23.3228C537.606 23.1043 537.445 22.9233 537.239 22.8102C537.032 22.6971 536.793 22.659 536.562 22.7024C517.459 26.6084 498.438 30.8515 479.427 35.2858C467.696 38.3322 456.388 42.8213 445.759 48.6507C442.015 50.8308 438.25 52.9749 434.434 55.0426C427.22 58.9534 420.203 63.206 413.116 67.3415C407.178 70.8076 399.83 73.8196 393.952 77.2188C392.997 77.7686 391.277 78.8587 389.632 79.92C389.381 80.0796 389.191 80.3193 389.093 80.6002C388.995 80.8812 388.995 81.187 389.092 81.4682C389.19 81.7494 389.379 81.9896 389.629 82.1498C389.88 82.3101 390.177 82.3809 390.473 82.351C392.197 82.1789 394.195 81.9159 396.203 81.512C405.707 79.5996 420.559 76.0284 427.782 75.775C434.706 75.5359 441.659 75.6482 448.589 75.9518C452.049 76.1024 455.513 76.3056 458.961 76.5351C460.934 76.6666 466.27 78.0554 467.963 77.1901C490.518 65.6801 512.376 53.4602 534.074 40.473C534.596 40.1559 535.195 39.9883 535.806 39.9881C536.417 39.988 537.016 40.1554 537.539 40.4722C538.061 40.7891 538.487 41.2433 538.77 41.7853C539.053 42.3274 539.182 42.9368 539.143 43.5471C539.131 43.7001 539.117 43.853 539.102 44.0036C539.055 44.5021 538.897 44.9837 538.64 45.4133C538.383 45.843 538.033 46.2099 537.617 46.4873C524.121 55.4299 510.439 63.9686 496.27 71.728C495.736 72.0192 495.304 72.4689 495.034 73.0153C494.765 73.5617 494.671 74.1782 494.765 74.7802C494.859 75.3823 495.137 75.9404 495.56 76.3783C495.984 76.8161 496.532 77.1122 497.13 77.226C504.673 78.6339 510.229 71.3622 516.471 68.0443C516.676 67.9343 585 100.382 585 100.382" stroke="white" stroke-width="4" stroke-miterlimit="10"/>
</svg>
