<svg width="352" height="193" viewBox="0 0 352 193" fill="none" xmlns="http://www.w3.org/2000/svg">
<path d="M53.5 190C56.5 187 64.8007 169.245 65.5 164C66.5 156.5 66.5 154.5 61.5 145.909C55.7324 136 52.956 132.481 53.7948 132.294C65.3847 129.74 77.5285 127.174 84.6281 115.838C88.1604 110.192 89.9467 103.287 93.8957 97.9971C97.0722 94.2451 101.014 91.4119 105.383 89.7407C113.478 86.5223 121.783 84.0077 130.224 82.2188C122.24 85.5776 105.663 85.4999 98.1414 82.6281C90.6195 79.7563 81.9897 77.1394 75.0617 81.4959C66.8373 86.6638 63.243 100.483 53.0989 99.9329C50.6984 99.7438 48.3932 98.8049 46.445 97.2227C39.0875 91.5196 33.5878 81.6783 30.1067 70.2746C38.0922 75.7563 44.5309 83.6553 48.6803 93.0597C50.2689 97.1934 51.4777 101.498 52.2884 105.905C53.2048 110.252 51.9217 115.36 50.9866 119.636C48.8577 129.47 44.9988 138.729 39.6361 146.872C29.7866 161.722 14.595 167.156 5.63992 172.13C5.33185 172.305 4.98146 172.362 4.64151 172.295C4.30157 172.227 3.99063 172.037 3.7553 171.754C3.51997 171.471 3.37311 171.11 3.33688 170.725C3.30065 170.341 3.37683 169.954 3.55425 169.622C7.32128 162.495 13.3445 151.557 18.2988 145.909C26.0225 137.108 46.5861 133.739 46.5861 133.739C46.5861 133.739 47.6955 116.453 44.5772 109.419C42.5256 104.799 38.8858 101.351 35.9317 97.3842C33.3951 93.6612 31.2234 89.6443 29.4536 85.4013C27.4321 81.113 25.5005 77.3228 25.1708 72.2937C25.08 70.9067 25.1926 69.2625 26.7563 68.8718C27.3883 68.7371 28.0423 68.8677 28.5939 69.2385C32.6534 71.9789 36.4195 75.2305 39.8182 78.9308C42.0612 81.3744 44.0104 84.1352 45.617 87.1425C48.7073 92.9827 47.1124 96.871 51.2361 101.844C56.6827 108.416 66.5576 109.453 67.7983 97.5649C67.9845 95.538 67.8805 93.4908 67.49 91.5007C65.9216 83.4397 63.4012 75.6484 59.9957 68.3328C57.1934 62.1639 54.6632 55.9939 51.8943 49.7758C46.0628 36.7075 38.117 24.9647 28.46 15.1437C27.7399 14.3816 26.8118 13.9127 25.8251 13.8136C23.1682 13.6198 22.2424 16.3978 21.8317 18.7865C18.8702 36.0631 25.6287 53.9401 29.9197 69.8781C32.0637 78.0718 35.8622 85.6025 41.0214 91.8884C43.0065 94.4496 45.3806 96.5975 48.0339 98.2323C49.7769 99.1491 51.6023 99.8555 53.4788 100.34C57.7138 101.487 60.8068 98.0804 63.6352 94.3554C64.8373 92.7407 65.6297 90.7939 65.9297 88.7185C66.2296 86.6431 66.0261 84.516 65.3401 82.559C64.9393 80.7506 64.833 78.8757 65.0266 77.025C65.1233 75.1426 67.7414 70.6126 71.7186 64.6696C95.896 28.5111 118.755 43.0918 204.078 39.3159C289.4 35.54 360.244 -27.4363 347.705 -125.881" stroke="white" stroke-width="5" stroke-linecap="round" stroke-linejoin="round"/>
</svg>
